# xmcd
#
# Track frame offsets: 
#        150
#        16870
#        33852
#        57802
#        76200
#        98037
#
# Disc length: 1545 seconds
#
# Revision: 5
# Processed by: cddbd v1.5.2PL0 Copyright (c) Steve Scherf et al.
# Submitted via: ExactAudioCopy v0.99pb5
#
DISCID=35060706
DTITLE=Montell Jordan - This Is How We Do It
DYEAR=1995
DGENRE=R&B
TTITLE0=This Is How We Do It (Radio Mix)
TTITLE1=This Is How We Do It (Tee's Radio Mix)
TTITLE2=This Is How We Do It (Tee's Club Mix)
TTITLE3=This Is How We Do It (Barr 9 Mix)
TTITLE4=This Is How We Do It (Tee's Dub Mix)
TTITLE5=This Is How We Do It (Wino Mix)
EXTD=YEAR: 1995
EXTT0=
EXTT1=
EXTT2=
EXTT3=
EXTT4=
EXTT5=
PLAYORDER=
